<svg height="20" viewBox="0 0 24.606 20" xmlns="http://www.w3.org/2000/svg"><path d="m24.603 2.357c-.919.41-1.896.677-2.897.791 1.056-.628 1.846-1.619 2.222-2.788-.993.586-2.079 1-3.211 1.223-2.659-2.832-7.387-1.724-8.51 1.995-.143.473-.216.965-.216 1.459-.001.388.044.775.135 1.152-4.059-.206-7.84-2.121-10.408-5.272-1.34 2.307-.655 5.259 1.565 6.738-.801-.025-1.584-.241-2.284-.63v.064c-.001 2.402 1.693 4.471 4.047 4.947-.433.119-.881.18-1.331.18-.32-.003-.639-.033-.953-.09.661 2.056 2.555 3.465 4.713 3.508-1.789 1.401-3.997 2.162-6.27 2.159-.402-.001-.805-.025-1.205-.072 2.308 1.483 4.993 2.27 7.736 2.267 9.284 0 14.357-7.691 14.357-14.357 0-.216-.009-.441-.018-.657.992-.715 1.848-1.601 2.528-2.617" fill="#959da5"/></svg>