<?xml version="1.0" encoding="utf-8"?>
<svg fill="none" height="20px" viewBox="0 0 33.333 20" width="33.3px" xmlns="http://www.w3.org/2000/svg">
  <path clip-rule="evenodd" d="M 32.811 1.388 C 33.06 0.605 32.811 0.036 31.708 0.036 L 28.043 0.036 C 27.117 0.036 26.69 0.534 26.441 1.068 C 26.441 1.068 24.555 5.623 21.922 8.577 C 21.068 9.431 20.676 9.715 20.214 9.715 C 19.964 9.715 19.644 9.431 19.644 8.648 L 19.644 1.352 C 19.644 0.427 19.359 0 18.577 0 L 12.811 0 C 12.242 0 11.886 0.427 11.886 0.854 C 11.886 1.744 13.203 1.957 13.345 4.448 L 13.345 9.858 C 13.345 11.032 13.132 11.246 12.669 11.246 C 11.424 11.246 8.399 6.655 6.584 1.423 C 6.228 0.391 5.872 0 4.947 0 L 1.246 0 C 0.178 0 0 0.498 0 1.032 C 0 1.993 1.246 6.833 5.801 13.238 C 8.826 17.616 13.132 19.964 17.011 19.964 C 19.359 19.964 19.644 19.431 19.644 18.541 L 19.644 15.231 C 19.644 14.164 19.858 13.986 20.605 13.986 C 21.139 13.986 22.1 14.27 24.27 16.37 C 26.762 18.861 27.189 20 28.577 20 L 32.242 20 C 33.31 20 33.808 19.466 33.523 18.434 C 33.203 17.402 31.993 15.907 30.427 14.128 C 29.573 13.132 28.292 12.028 27.9 11.495 C 27.367 10.783 27.509 10.498 27.9 9.858 C 27.865 9.858 32.349 3.523 32.811 1.388 Z" fill="#959da5" fill-rule="evenodd"/>
</svg>